<svg xmlns="http://www.w3.org/2000/svg">

    <symbol id="brokerage">
        <path d="M7.81068 14.2971C8.09886 11.5066 9.92843 9.29774 12.6723 8.71361C17.0034 7.79159 25.1676 6.68396 39.3975 6.68396C53.6273 6.68396 61.7916 7.79159 66.1226 8.71361C68.8665 9.29774 70.6961 11.5066 70.9842 14.2971C71.4115 18.4346 71.8975 26.0314 71.8975 39.184C71.8975 52.3365 71.4115 59.9333 70.9842 64.0708C70.6961 66.8613 68.8665 69.0702 66.1226 69.6543C61.7916 70.5763 53.6273 71.684 39.3975 71.684C25.1676 71.684 17.0034 70.5763 12.6723 69.6543C9.92843 69.0702 8.09886 66.8613 7.81068 64.0708C7.3834 59.9333 6.89746 52.3365 6.89746 39.184C6.89746 26.0314 7.38339 18.4347 7.81068 14.2971Z" fill="url(#paint0_linear_139_1014)"/>
        <path d="M33.0838 55.6125C33.1356 56.569 33.542 57.4574 34.4174 57.8466C35.3495 58.2609 36.9102 58.684 39.3975 58.684C41.8847 58.684 43.4454 58.2609 44.3775 57.8466C45.2529 57.4574 45.6594 56.569 45.7111 55.6125C45.7975 54.0174 45.8975 50.7299 45.8975 44.059C45.8975 37.388 45.7975 34.1005 45.7111 32.5055C45.6594 31.5489 45.2529 30.6605 44.3775 30.2713C43.4454 29.857 41.8847 29.434 39.3975 29.434C36.9102 29.434 35.3495 29.857 34.4174 30.2713C33.542 30.6605 33.1356 31.5489 33.0838 32.5055C32.9975 34.1005 32.8975 37.388 32.8975 44.059C32.8975 50.7299 32.9975 54.0174 33.0838 55.6125Z" fill="white"/>
        <path d="M49.3737 54.9436C49.4202 56.3196 49.9822 57.6464 51.2866 58.0868C52.2434 58.4098 53.6452 58.684 55.6475 58.684C57.6497 58.684 59.0515 58.4098 60.0083 58.0868C61.3127 57.6464 61.8748 56.3196 61.9212 54.9436C62.0129 52.2275 62.1475 46.9225 62.1475 39.184C62.1475 31.4454 62.0129 26.1404 61.9212 23.4243C61.8748 22.0483 61.3127 20.7216 60.0083 20.2811C59.0515 19.9581 57.6497 19.684 55.6475 19.684C53.6452 19.684 52.2434 19.9581 51.2866 20.2811C49.9822 20.7216 49.4202 22.0483 49.3737 23.4243C49.282 26.1404 49.1475 31.4454 49.1475 39.184C49.1475 46.9225 49.282 52.2275 49.3737 54.9436Z" fill="white"/>
        <path d="M16.8052 55.6146C16.8695 56.5704 17.292 57.4574 18.1674 57.8466C19.0995 58.2609 20.6602 58.684 23.1475 58.684C25.6347 58.684 27.1954 58.2609 28.1275 57.8466C29.0029 57.4574 29.4255 56.5704 29.4897 55.6146C29.5681 54.4482 29.6475 52.409 29.6475 48.934C29.6475 45.4589 29.5681 43.4197 29.4897 42.2533C29.4255 41.2975 29.0029 40.4105 28.1275 40.0213C27.1954 39.607 25.6347 39.184 23.1475 39.184C20.6602 39.184 19.0995 39.607 18.1674 40.0213C17.292 40.4105 16.8695 41.2975 16.8052 42.2533C16.7269 43.4197 16.6475 45.4589 16.6475 48.934C16.6475 52.409 16.7269 54.4482 16.8052 55.6146Z" fill="white"/>
        <defs>
            <linearGradient id="paint0_linear_139_1014" x1="-43.6847" y1="15.3595" x2="107.681" y2="128.604" gradientUnits="userSpaceOnUse">
                <stop stop-color="#23FF60"/>
                <stop offset="0.618959" stop-color="#0ABE98"/>
            </linearGradient>
        </defs>
    </symbol>

    <symbol id="introducing">
        <path d="M65.5195 29.8541C68.3504 30.0865 70.5235 31.9778 70.9581 34.7848C71.4335 37.8545 71.8975 42.8304 71.8975 50.559C71.8975 60.8297 71.078 66.6618 70.5015 69.4938C70.2301 70.8273 69.0465 71.684 67.6857 71.684C65.2935 71.684 60.6827 71.684 52.3975 71.684C44.1123 71.684 39.5015 71.684 37.1092 71.684C35.7484 71.684 34.5648 70.8273 34.2934 69.4938C33.7169 66.6618 32.8975 60.8297 32.8975 50.559C32.8975 42.8304 33.3615 37.8545 33.8368 34.7848C34.2714 31.9778 36.4446 30.0865 39.2754 29.8541C41.9679 29.6331 46.1321 29.434 52.3975 29.434C58.6628 29.434 62.827 29.6331 65.5195 29.8541Z" fill="url(#paint0_linear_139_1022)"/>
        <path d="M48.7395 7.44568C51.603 7.77837 53.7131 9.81884 54.1581 12.667C54.8428 17.0494 55.6475 25.179 55.6475 39.184C55.6475 56.333 54.4409 65.4385 53.7256 69.3301C53.4661 70.7417 52.2316 71.684 50.7963 71.684C47.9378 71.684 42.1285 71.684 31.2725 71.684C20.4165 71.684 14.6071 71.684 11.7486 71.684C10.3134 71.684 9.0788 70.7417 8.81933 69.3301C8.10398 65.4385 6.89747 56.333 6.89747 39.184C6.89747 25.179 7.70214 17.0494 8.38681 12.667C8.83179 9.81884 10.942 7.77837 13.8055 7.44568C17.1006 7.06285 22.562 6.68396 31.2725 6.68396C39.9829 6.68396 45.4444 7.06285 48.7395 7.44568Z" fill="url(#paint1_linear_139_1022)"/>
        <path d="M18.2725 22.934C18.2725 21.139 19.7275 19.684 21.5225 19.684H41.0225C42.8174 19.684 44.2725 21.139 44.2725 22.934C44.2725 24.7289 42.8174 26.184 41.0225 26.184H21.5225C19.7275 26.184 18.2725 24.7289 18.2725 22.934Z" fill="white"/>
        <path d="M18.2725 39.184C18.2725 37.389 19.7275 35.934 21.5225 35.934H41.0225C42.8174 35.934 44.2725 37.389 44.2725 39.184C44.2725 40.9789 42.8174 42.434 41.0225 42.434H21.5225C19.7275 42.434 18.2725 40.9789 18.2725 39.184Z" fill="white"/>
        <path d="M22.4371 63.3674C22.3293 60.5717 24.1703 58.2064 26.9612 58.0102C28.1376 57.9275 29.5649 57.8715 31.2726 57.8715C32.9803 57.8715 34.4076 57.9275 35.584 58.0102C38.3749 58.2064 40.2159 60.5717 40.1081 63.3674C40.0064 66.0059 39.8033 69.25 39.3976 71.684H23.1476C22.7419 69.25 22.5388 66.0059 22.4371 63.3674Z" fill="white"/>
        <defs>
            <linearGradient id="paint0_linear_139_1022" x1="66.6921" y1="-3.44445" x2="-8.374" y2="89.1729" gradientUnits="userSpaceOnUse">
                <stop stop-color="#23FF60"/>
                <stop offset="0.618959" stop-color="#0ABE98"/>
            </linearGradient>
            <linearGradient id="paint1_linear_139_1022" x1="49.1408" y1="-43.8982" x2="-68.9036" y2="74.4379" gradientUnits="userSpaceOnUse">
                <stop stop-color="#23FF60"/>
                <stop offset="0.618959" stop-color="#0ABE98"/>
            </linearGradient>
        </defs>
    </symbol>

    <symbol id="money">
        <path d="M71.8975 39.184C71.8975 57.1332 57.3467 71.684 39.3975 71.684C21.4482 71.684 6.89746 57.1332 6.89746 39.184C6.89746 21.2347 21.4482 6.68396 39.3975 6.68396C57.3467 6.68396 71.8975 21.2347 71.8975 39.184Z" fill="url(#paint0_linear_139_1031)"/>
        <path d="M38.2274 49.6099C40.0994 49.6099 41.4514 49.2633 42.2834 48.5699C43.15 47.8766 43.5834 47.0273 43.5834 46.0219C43.5834 45.1206 43.254 44.3926 42.5954 43.8379C41.9367 43.2833 40.9487 42.7979 39.6314 42.3819L36.7714 41.4459C35.35 40.9953 34.0674 40.5099 32.9234 39.9899C31.7794 39.4699 30.8087 38.8459 30.0114 38.1179C29.214 37.3899 28.59 36.5233 28.1394 35.5179C27.6887 34.5126 27.4634 33.3166 27.4634 31.9299C27.4634 29.5726 28.1914 27.6139 29.6474 26.0539C31.1034 24.4939 33.1834 23.4539 35.8874 22.9339V21.0463C35.8874 19.7414 36.7762 18.5686 38.0784 18.4854C38.3205 18.4699 38.5615 18.4619 38.7994 18.4619C40.082 18.4619 41.0007 18.6873 41.5554 19.1379C42.1447 19.5886 42.4394 20.4033 42.4394 21.5819V22.7259C44.658 22.9686 46.4607 23.5059 47.8474 24.3379C49.234 25.1353 49.9274 26.1926 49.9274 27.5099C49.9274 28.1091 49.7797 28.663 49.5248 29.1642C48.8954 30.4021 47.2357 30.3342 45.9317 29.8564C45.5731 29.7249 45.1889 29.6015 44.7794 29.4859C43.462 29.0699 42.0234 28.8619 40.4634 28.8619C38.73 28.8619 37.43 29.1566 36.5634 29.7459C35.7314 30.3006 35.3154 31.0286 35.3154 31.9299C35.3154 32.6579 35.5927 33.2473 36.1474 33.6979C36.7367 34.1486 37.6207 34.5646 38.7994 34.9459L41.7114 35.8299C44.8314 36.8006 47.2234 38.0833 48.8874 39.6779C50.586 41.2726 51.4354 43.4219 51.4354 46.1259C51.4354 48.5179 50.6727 50.5459 49.1474 52.2099C47.622 53.8393 45.386 54.9313 42.4394 55.4859V57.3216C42.4394 58.6265 41.5506 59.7995 40.2483 59.8826C40.0064 59.898 39.7654 59.9059 39.5274 59.9059C38.2447 59.9059 37.3087 59.6806 36.7194 59.2299C36.1647 58.7793 35.8874 57.9646 35.8874 56.7859V55.7459C33.3567 55.4686 31.294 54.8619 29.6994 53.9259C28.1394 52.9553 27.3594 51.7419 27.3594 50.2859C27.3594 49.4333 27.6589 48.6931 28.1393 48.0711C28.9654 47.0014 30.5284 47.2487 31.705 47.9137C32.2051 48.1964 32.7499 48.4671 33.3394 48.7259C34.7607 49.3153 36.39 49.6099 38.2274 49.6099Z" fill="white"/>
        <defs>
            <linearGradient id="paint0_linear_139_1031" x1="-43.6847" y1="15.3595" x2="107.681" y2="128.604" gradientUnits="userSpaceOnUse">
                <stop stop-color="#23FF60"/>
                <stop offset="0.618959" stop-color="#0ABE98"/>
            </linearGradient>
        </defs>
    </symbol>

    <symbol id="enterpreneur">
        <path fill-rule="evenodd" clip-rule="evenodd" d="M3.12671 33.4813C1.48318 35.3283 2.22892 37.8414 4.64629 38.3599C6.53925 38.7658 9.14125 39.2189 12.6465 39.6414C12.5632 42.4302 12.5124 45.6657 12.5124 49.4097C12.5124 59.3917 12.8737 65.7593 13.2492 69.6816C13.5937 73.2801 16.0495 76.0213 19.6166 76.6076C24.2538 77.3698 32.2777 78.184 45.3973 78.184C58.5169 78.184 66.5409 77.3698 71.178 76.6076C74.7451 76.0213 77.201 73.2801 77.5455 69.6816C77.921 65.7593 78.2823 59.3917 78.2823 49.4097C78.2823 45.6658 78.2314 42.4304 78.1481 39.6418C81.6537 39.2193 84.256 38.7662 86.1493 38.3602C88.5672 37.8417 89.313 35.3278 87.6689 33.4805C84.7842 30.2395 79.4204 24.7139 70.0623 16.525C59.2252 7.0418 51.9588 2.91638 48.2643 1.20583C46.4273 0.35527 44.3699 0.355395 42.533 1.20611C38.839 2.91684 31.5734 7.04233 20.7349 16.525C11.3744 24.7145 6.01072 30.2403 3.12671 33.4813Z" fill="url(#paint0_linear_139_1038)"/>
        <path fill-rule="evenodd" clip-rule="evenodd" d="M43.0571 24.9017C40.3167 24.9017 37.9052 26.7104 37.1378 29.3412L36.1143 32.8504C32.8112 32.9148 30.291 33.0097 28.3958 33.1081C25.2465 33.2717 22.8262 35.4841 22.565 38.6267C22.3424 41.3059 22.1523 45.2221 22.1523 50.785C22.1523 56.8318 22.3769 61.086 22.6238 63.9357C22.8849 66.9496 25.1081 69.1682 28.1229 69.4176C31.4846 69.6957 36.9191 69.9624 45.3977 69.9624C53.8764 69.9624 59.3108 69.6957 62.6726 69.4176C65.6874 69.1682 67.9106 66.9496 68.1717 63.9357C68.4185 61.086 68.6431 56.8318 68.6431 50.785C68.6431 45.2221 68.4531 41.3059 68.2304 38.6267C67.9693 35.4841 65.549 33.2717 62.3997 33.1081C60.5046 33.0097 57.9846 32.9148 54.6819 32.8504L53.6583 29.3412C52.891 26.7104 50.4795 24.9017 47.7391 24.9017H43.0571ZM50.3823 32.7899L49.7122 30.4922C49.4564 29.6152 48.6525 29.0124 47.7391 29.0124H43.0571C42.1437 29.0124 41.3398 29.6152 41.084 30.4922L40.4139 32.7899C41.9449 32.776 43.6031 32.7682 45.3977 32.7682C47.1926 32.7682 48.8511 32.776 50.3823 32.7899Z" fill="white"/>
        <path fill-rule="evenodd" clip-rule="evenodd" d="M68.5532 44.5838C68.474 44.6167 68.3933 44.6502 68.3112 44.6841C66.4675 45.447 63.9273 46.4631 61.1368 47.4778C58.3422 48.494 55.321 49.5 52.5104 50.2495C49.6631 51.0087 47.176 51.4646 45.3968 51.4646C43.6175 51.4646 41.1304 51.0087 38.2831 50.2495C35.4725 49.5 32.4513 48.494 29.6567 47.4778C26.8662 46.4631 24.326 45.447 22.4823 44.6841C22.4009 44.6505 22.3209 44.6173 22.2423 44.5846C22.201 45.9072 22.1717 47.3728 22.1592 48.9939C23.8725 49.6888 25.9791 50.5144 28.2519 51.3409C31.1094 52.38 34.2541 53.4293 37.224 54.2213C38.6027 54.5889 39.9757 54.9101 41.286 55.1472V57.6306C41.286 58.7657 42.2062 59.6859 43.3413 59.6859H47.4519C48.587 59.6859 49.5072 58.7657 49.5072 57.6306V55.1473C50.8176 54.9101 52.1908 54.589 53.5695 54.2213C56.5394 53.4293 59.6841 52.38 62.5416 51.3409C64.8154 50.5141 66.9226 49.6881 68.6364 48.9931C68.6238 47.372 68.5945 45.9063 68.5532 44.5838Z" fill="url(#paint1_linear_139_1038)"/>
        <defs>
            <linearGradient id="paint0_linear_139_1038" x1="-64.9119" y1="10.9274" x2="120.347" y2="165.04" gradientUnits="userSpaceOnUse">
                <stop stop-color="#23FF60"/>
                <stop offset="0.618959" stop-color="#0ABE98"/>
            </linearGradient>
            <linearGradient id="paint1_linear_139_1038" x1="-14.0088" y1="46.5994" x2="12.7814" y2="108.282" gradientUnits="userSpaceOnUse">
                <stop stop-color="#23FF60"/>
                <stop offset="0.618959" stop-color="#0ABE98"/>
            </linearGradient>
        </defs>
    </symbol>

    <symbol id="trader">
        <path d="M8.44508 68.434C8.44508 68.434 15.0225 71.684 39.3975 71.684C63.7725 71.684 70.3498 68.434 70.3498 68.434C70.3498 68.434 71.8975 62.6562 71.8975 39.184C71.8975 15.7117 70.3498 9.93396 70.3498 9.93396C70.3498 9.93396 63.7725 6.68396 39.3975 6.68396C15.0225 6.68396 8.44508 9.93396 8.44508 9.93396C8.44508 9.93396 6.89746 15.7117 6.89746 39.184C6.89746 62.6562 8.44508 68.434 8.44508 68.434Z" fill="url(#paint0_linear_139_1057)"/>
        <path fill-rule="evenodd" clip-rule="evenodd" d="M7.27511 56.7449C11.418 52.6647 15.8612 48.7825 19.358 45.8528C20.3705 45.0045 21.3002 44.2388 22.1163 43.5745L27.8274 52.7122C28.5649 53.8922 29.8551 54.6126 31.2465 54.6215C32.638 54.6304 33.9372 53.9264 34.6897 52.7559C38.1864 47.3166 42.0931 42.6241 45.1416 39.2806C45.9003 38.4485 46.603 37.703 47.2296 37.0535L52.5265 43.4098C53.2921 44.3285 54.4234 44.8632 55.6192 44.8715C56.815 44.8798 57.9537 44.3608 58.7319 43.4529C63.4714 37.9235 68.2229 33.1679 71.8036 29.7843C71.71 25.409 71.5554 21.9296 71.3811 19.187C71.2015 19.3433 71.0028 19.5172 70.7862 19.708C69.689 20.6746 68.1305 22.0774 66.2643 23.84C63.3297 26.6115 59.6182 30.2876 55.7354 34.5688L50.6433 28.4583C49.9341 27.6073 48.9082 27.0828 47.803 27.0063C46.6979 26.9298 45.6094 27.3079 44.7897 28.0531L44.7876 28.055L44.7846 28.0577L44.7763 28.0652C44.2256 28.5694 43.6898 29.0901 43.1584 29.6145C42.1624 30.5972 40.7663 32.02 39.1376 33.8063C36.8859 36.2759 34.1682 39.4637 31.4415 43.1645L26.5924 35.406C25.9851 34.4342 24.9955 33.7641 23.8677 33.5609C22.7399 33.3578 21.5775 33.6413 20.6692 34.34C20.0494 34.8181 19.4358 35.3043 18.8239 35.7925C17.673 36.7107 16.0477 38.0264 14.14 39.6248C12.0152 41.405 9.5259 43.5476 6.94336 45.8911C7.00595 50.2554 7.12734 53.8317 7.27511 56.7449Z" fill="white"/>
        <defs>
            <linearGradient id="paint0_linear_139_1057" x1="-43.6847" y1="63.0084" x2="107.681" y2="-50.236" gradientUnits="userSpaceOnUse">
                <stop stop-color="#23FF60"/>
                <stop offset="0.618959" stop-color="#0ABE98"/>
            </linearGradient>
        </defs>
    </symbol>


</svg>